<svg width="54" height="54" viewBox="0 0 54 54" fill="none" xmlns="http://www.w3.org/2000/svg">
<path d="M21.9106 4.21536C20.708 7.10138 17.336 8.40516 14.4972 7.09496C9.80029 4.92715 4.92715 9.80029 7.09496 14.4972C8.40516 17.336 7.10138 20.708 4.21536 21.9106C-0.308767 23.7956 -0.308767 30.2047 4.21536 32.0898C7.10138 33.2923 8.40516 36.6646 7.09496 39.5031C4.92715 44.2001 9.80029 49.0732 14.4972 46.9053C17.336 45.5951 20.708 46.8989 21.9106 49.7849C23.7956 54.3092 30.2047 54.3092 32.0898 49.7849C33.2923 46.8989 36.6646 45.5951 39.5031 46.9053C44.2001 49.0732 49.0732 44.2001 46.9053 39.5031C45.5951 36.6646 46.8989 33.2923 49.7849 32.0898C54.3092 30.2047 54.3092 23.7956 49.7849 21.9106C46.8989 20.708 45.5951 17.336 46.9053 14.4972C49.0732 9.80029 44.2001 4.92715 39.5031 7.09496C36.6646 8.40516 33.2923 7.10138 32.0898 4.21536C30.2047 -0.308767 23.7956 -0.308767 21.9106 4.21536Z" stroke="#43464C" stroke-width="4" stroke-linecap="round" stroke-linejoin="round"/>
<path d="M35.75 27C35.75 31.8326 31.8326 35.75 27 35.75C22.1674 35.75 18.25 31.8326 18.25 27C18.25 22.1674 22.1674 18.25 27 18.25C31.8326 18.25 35.75 22.1674 35.75 27Z" stroke="#43464C" stroke-width="4"/>
</svg>
