<svg width="54" height="54" viewBox="0 0 54 54" fill="none" xmlns="http://www.w3.org/2000/svg">
<path d="M6.58301 0.75V35.75" stroke="#43464C" stroke-width="4" stroke-linecap="round"/>
<path d="M6.58301 47.4165V53.2498" stroke="#43464C" stroke-width="4" stroke-linecap="round"/>
<path d="M27 0.75V6.58333" stroke="#43464C" stroke-width="4" stroke-linecap="round"/>
<path d="M47.417 47.4165V53.2498" stroke="#43464C" stroke-width="4" stroke-linecap="round"/>
<path d="M27 18.25V53.25" stroke="#43464C" stroke-width="4" stroke-linecap="round"/>
<path d="M47.417 0.75V35.75" stroke="#43464C" stroke-width="4" stroke-linecap="round"/>
<path d="M32.8337 12.4168C32.8337 15.6385 30.2221 18.2502 27.0003 18.2502C23.7786 18.2502 21.167 15.6385 21.167 12.4168C21.167 9.19517 23.7786 6.5835 27.0003 6.5835C30.2221 6.5835 32.8337 9.19517 32.8337 12.4168Z" stroke="#43464C" stroke-width="4"/>
<path d="M53.2497 41.5833C53.2497 44.8051 50.6381 47.4167 47.4163 47.4167C44.1946 47.4167 41.583 44.8051 41.583 41.5833C41.583 38.3616 44.1946 35.75 47.4163 35.75C50.6381 35.75 53.2497 38.3616 53.2497 41.5833Z" stroke="#43464C" stroke-width="4"/>
<path d="M12.4167 41.5833C12.4167 44.8051 9.805 47.4167 6.58333 47.4167C3.36167 47.4167 0.75 44.8051 0.75 41.5833C0.75 38.3616 3.36167 35.75 6.58333 35.75C9.805 35.75 12.4167 38.3616 12.4167 41.5833Z" stroke="#43464C" stroke-width="4"/>
</svg>
