<svg width="28" height="28" viewBox="0 0 28 28" fill="none" xmlns="http://www.w3.org/2000/svg">
<path d="M13.9987 0C12.7213 0 11.6855 1.03534 11.6855 2.31262C11.6855 3.59002 12.7213 4.62525 13.9987 4.62525C15.276 4.62525 16.3108 3.59002 16.3108 2.31262C16.3108 1.03534 15.276 0 13.9987 0Z" fill="#F5F6F6"/>
<path opacity="0.6" d="M13.9987 23.375C12.7213 23.375 11.6855 24.4103 11.6855 25.6876C11.6855 26.965 12.7213 28.0002 13.9987 28.0002C15.276 28.0002 16.3108 26.965 16.3108 25.6876C16.3108 24.4103 15.276 23.375 13.9987 23.375Z" fill="#F5F6F6"/>
<path opacity="0.3" d="M4.09945 4.10043C3.19602 5.00338 3.19602 6.46763 4.09945 7.37107C5.00289 8.27451 6.46671 8.27451 7.37009 7.37107C8.27353 6.46812 8.27353 5.00387 7.37009 4.10043C6.46671 3.19699 5.00289 3.19699 4.09945 4.10043Z" fill="#F5F6F6"/>
<path opacity="0.7" d="M20.6281 20.6285C19.7255 21.532 19.7255 22.9963 20.6281 23.8997C21.5314 24.8031 22.9962 24.8031 23.8987 23.8997C24.8021 22.9968 24.8021 21.532 23.8987 20.6285C22.9953 19.7252 21.5314 19.7256 20.6281 20.6285Z" fill="#F5F6F6"/>
<path opacity="0.4" d="M4.62427 14.0001C4.62525 12.7233 3.58947 11.688 2.31213 11.688C1.0348 11.6875 -0.000983673 12.7233 7.01725e-07 14.0006C-0.000983673 15.2775 1.03381 16.3127 2.31213 16.3127C3.58947 16.3127 4.62427 15.2775 4.62427 14.0001Z" fill="#F5F6F6"/>
<path opacity="0.8" d="M25.6881 11.6875C24.4108 11.6875 23.376 12.7233 23.375 14.0001C23.375 15.2775 24.4108 16.3127 25.6881 16.3132C26.9655 16.3132 28.0012 15.2775 28.0002 14.0001C28.0012 12.7233 26.9655 11.6875 25.6881 11.6875Z" fill="#F5F6F6"/>
<path opacity="0.5" d="M4.09941 20.6291C3.19603 21.5321 3.19603 22.9969 4.09941 23.8998C5.00192 24.8032 6.46574 24.8032 7.36912 23.8998C8.27256 22.9964 8.27256 21.5321 7.36912 20.6286C6.46667 19.7253 5.00285 19.7253 4.09941 20.6291Z" fill="#F5F6F6"/>
<path opacity="0.9" d="M23.9 7.37187C24.8034 6.46843 24.8034 5.00368 23.9 4.10025C22.9966 3.1973 21.5318 3.19681 20.6284 4.10025C19.725 5.00368 19.7259 6.46794 20.6284 7.37138C21.5318 8.27482 22.9966 8.27482 23.9 7.37187Z" fill="#F5F6F6"/>
</svg>
