<svg width="54" height="52" viewBox="0 0 54 52" fill="none" xmlns="http://www.w3.org/2000/svg">
<path d="M47.4163 16.25V39.5833C47.4163 45.083 47.4163 47.8328 45.7078 49.5414C43.9992 51.25 41.2493 51.25 35.7497 51.25H32.833H21.1663H18.2497C12.7499 51.25 10.0001 51.25 8.29156 49.5414C6.58301 47.8328 6.58301 45.083 6.58301 39.5833V16.25" stroke="white" stroke-width="4" stroke-linejoin="round"/>
<path d="M0.75 22.0831L13.875 10.4164L23.1246 2.19463C25.3346 0.230047 28.6654 0.230047 30.8754 2.19463L40.125 10.4164L53.25 22.0831" stroke="white" stroke-width="4" stroke-linecap="round" stroke-linejoin="round"/>
<path d="M21.167 51.25V39.5833C21.167 36.3616 23.7786 33.75 27.0003 33.75C30.2221 33.75 32.8337 36.3616 32.8337 39.5833V51.25" stroke="white" stroke-width="4" stroke-linecap="round" stroke-linejoin="round"/>
</svg>
