<svg width="42" height="42" viewBox="0 0 42 42" fill="none" xmlns="http://www.w3.org/2000/svg">
<path d="M21 0.875C26.3375 0.875 31.4564 2.99531 35.2305 6.76948C39.0047 10.5436 41.125 15.6625 41.125 21C41.125 26.3375 39.0047 31.4564 35.2305 35.2305C31.4564 39.0047 26.3375 41.125 21 41.125C15.6625 41.125 10.5436 39.0047 6.76948 35.2305C2.99531 31.4564 0.875 26.3375 0.875 21C0.875 15.6625 2.99531 10.5436 6.76948 6.76948C10.5436 2.99531 15.6625 0.875 21 0.875ZM21 38.25C25.575 38.25 29.9626 36.4326 33.1976 33.1976C36.4326 29.9626 38.25 25.575 38.25 21C38.25 16.425 36.4326 12.0374 33.1976 8.80241C29.9626 5.56741 25.575 3.75 21 3.75C16.425 3.75 12.0374 5.56741 8.80241 8.80241C5.56741 12.0374 3.75 16.425 3.75 21C3.75 25.575 5.56741 29.9626 8.80241 33.1976C12.0374 36.4326 16.425 38.25 21 38.25ZM23.1562 30.3438C23.1562 30.9156 22.9291 31.4641 22.5247 31.8684C22.1203 32.2728 21.5719 32.5 21 32.5C20.4281 32.5 19.8797 32.2728 19.4753 31.8684C19.0709 31.4641 18.8438 30.9156 18.8438 30.3438C18.8438 29.7719 19.0709 29.2234 19.4753 28.8191C19.8797 28.4147 20.4281 28.1875 21 28.1875C21.5719 28.1875 22.1203 28.4147 22.5247 28.8191C22.9291 29.2234 23.1562 29.7719 23.1562 30.3438ZM21 9.5C21.3812 9.5 21.7469 9.65145 22.0165 9.92103C22.2861 10.1906 22.4375 10.5563 22.4375 10.9375V23.875C22.4375 24.2562 22.2861 24.6219 22.0165 24.8915C21.7469 25.1611 21.3812 25.3125 21 25.3125C20.6188 25.3125 20.2531 25.1611 19.9835 24.8915C19.714 24.6219 19.5625 24.2562 19.5625 23.875V10.9375C19.5625 10.5563 19.714 10.1906 19.9835 9.92103C20.2531 9.65145 20.6188 9.5 21 9.5Z" fill="#185527"/>
</svg>
